<svg xmlns="http://www.w3.org/2000/svg" xmlns:lucid="lucid" width="197" height="262"><g lucid:page-tab-id="pcEfAoY~S1o-"><path d="M6.2 57.84v176.74M42.9 256.73l23.46-15.46M6.28 234.63L42.7 256.6M96.6 4.6l87.7 52.28M184.4 57.12v173.4M158.16 248.35l26.15-17.8M126.5 227.8l31.55 20.5M6.22 57.78L96.46 4.62M126.4 227.9l-28.5 20.98M97.78 248.96l-31.23-19.4" stroke="#dbd8d3" stroke-width="2" stroke-linecap="round" fill="none"/><path d="M96.9 239.8v-38.37M110.5 230.56v-38.42M80.92 228.95v-36.92" stroke="#b17f7f" stroke-width="3" stroke-linecap="round" fill="none"/><path d="M69.64 184.57v38.7M122.04 183.48V223M97.23 239.88l24.45-16.5M69.98 223.52l26.9 16.6M69.9 184.38l26.52 15.9M96.7 200.04l24.88-16.77" stroke="#b17f7f" stroke-width="4" stroke-linecap="round" fill="none"/><path d="M158.83 238.2v-78.1M168.6 232.33v-78.1M145.02 230.56V168.7" stroke="#cbba9f" stroke-width="3" stroke-linecap="round" fill="none"/><path d="M131.78 176.56v46.1M177.2 147.3v79.95M159.04 239.88L176.67 228M132.23 223.37l26.42 16.3M131.87 176.1l45.16-29.22" stroke="#cbba9f" stroke-width="4" stroke-linecap="round" fill="none"/><path d="M66.5 229.6v11.55" stroke="#dbd8d3" stroke-width="2" stroke-linecap="round" fill="none"/><path d="M41.5 249.35v-82.08M28.27 240.23V159.6" stroke="#86af89" stroke-width="3" stroke-linecap="round" fill="none"/><path d="M14.35 149.62v82.85M59.77 177.18v59.8M41.58 249.33l18.05-12.18M14.42 232.55l26.9 16.6M15 149.87l44.77 26.82" stroke="#86af89" stroke-width="4" stroke-linecap="round" fill="none"/><path d="M51.83 241.5v-68.1" stroke="#86af89" stroke-width="3" stroke-linecap="round" fill="none"/><path d="M13.84 61.66l21.82-14M36.04 47.6l21.1 13.36M13.82 137.57V61.9M13.96 137.84l82.8 50.07M97.04 187.8l79.47-50.66M176.65 137.03V63.66M57.5 71.7V61.3M132.56 82.3V63.9M122.6 75.84v-41.8M68 33.1l27.5-15.8M96.1 17.44l26.16 16.12M67.74 64.56V33.4M57.57 71.64L67.6 65.2M14.9 61.03l9.6-6.16M176.4 63.02l-21.5-13M154.32 49.63l-21.38 13.72M122.62 74.74v-.34M127.06 79.13l-3.1-2M132.32 82.54l-9.55-6.15M14.85 138.45l1.14.7" stroke="#dbd8d3" stroke-width="4" stroke-linecap="round" fill="none"/><path d="M13.98 61.4l21.4 13.53M176.55 62.82l-7.6 4.9M148.96 73l-16.2-9.8M104.88 44.5L123.12 34M67.64 33.36L94.66 50M95 82.4V50.42M35.72 120.64v-45.5M149.25 126.15V73.5M106.62 165.92l62.1-35.65M168.9 129.9V68.53M94.74 157.44l54.24-31.14M111.24 111.54l29.05 18.38M143.63 107.02v-36.2M148.27 109.9l-4.08-2.47M133.54 112.42l9.53-5.47M133.05 124V80.1M35.84 121.26l70.2 44.43M75.88 129.45V75.2M49.5 112.82l25.7-16.5M76.04 74.47L52.32 89.7M52 89.3V66.2M40.36 122.86V73.68M76.8 73.9l17.8 10.96M76.45 107.58l8.03 4.95M106.33 112.72l25.43-14.6M95.04 155.9V81.08M84.46 151.6v-38.5M106.16 150.38v-37.2M104.52 78.3V44.93M24.86 132.3V69.6M25.1 132.83l77.83 49.26M75.5 129.64l-25.63-16.22M57.42 61.3l-20.9 13.42M105.1 78.8l27 16.63" stroke="#dbd8d3" stroke-width="3" stroke-linecap="round" fill="none"/><path d="M35.64 54.6l11.3 6.94M25.03 61.36l11.3 6.96M25.06 61.25l10.4-6.67M46.86 61.72l-10.3 6.62" stroke="#dbd8d3" stroke-width="2" stroke-linecap="round" fill="none"/></g></svg>