<?xml version="1.0" encoding="UTF-8"?>
<svg version="1.1" xmlns="http://www.w3.org/2000/svg" width="812" height="1315">
<path d="M0 0 C13.78878208 14.3538961 22.93504955 31.93937931 27.75 51.1875 C28.02710815 52.27502563 28.02710815 52.27502563 28.30981445 53.38452148 C34.0393653 78.42791397 30.00670646 108.2082988 16.375 130.125 C14.40941501 133.82937172 14.21336584 136.04775073 14.75 140.1875 C16.56745809 143.63630572 18.63612731 146.32541547 21.37997437 149.07817078 C22.10890396 149.81418518 22.83783356 150.55019958 23.58885193 151.30851746 C24.38372513 152.10091324 25.17859833 152.89330902 25.99755859 153.7097168 C26.83852585 154.55579498 27.6794931 155.40187317 28.54594421 156.27359009 C30.84592254 158.58506496 33.15035489 160.89197401 35.45735502 163.1964376 C37.3851372 165.12314782 39.30992959 167.05283136 41.23478091 168.9824689 C45.77592428 173.53469303 50.32235771 178.08158577 54.87207031 182.62524414 C59.56201108 187.30913991 64.24268797 192.00214966 68.91895235 196.69969624 C72.93912373 200.73748805 76.96508327 204.769444 80.99570143 208.79680759 C83.40084669 211.20014121 85.80372088 213.60563885 88.20100021 216.01682091 C90.87478683 218.70291856 93.55790783 221.3793328 96.24365234 224.0534668 C97.03447708 224.85193527 97.82530182 225.65040375 98.64009094 226.47306824 C99.37466019 227.20062317 100.10922943 227.9281781 100.86605835 228.67778015 C101.49912085 229.31101039 102.13218334 229.94424063 102.78442955 230.59665966 C105.04137037 232.42332148 106.97144965 233.35442385 109.75 234.1875 C115.52188308 233.44274089 120.33640036 231.56740188 125.6875 229.3125 C160.32424686 214.89405955 202.52678804 217.55750714 236.8203125 231.47265625 C255.16001655 239.29630576 270.44582187 250.42762088 284.75 264.1875 C285.69552734 265.03828125 285.69552734 265.03828125 286.66015625 265.90625 C311.82567933 289.22749124 324.88673352 327.20064566 326.6640625 360.65625 C327.77078066 393.25413033 318.64020348 427.50645456 296.3359375 452.01171875 C279.09708116 470.26929667 256.41052963 482.45601006 230.921875 483.42578125 C203.69050426 483.98650107 179.4658734 476.82893484 159.26953125 457.875 C150.53197967 448.55494498 147.23066735 439.60594943 147.44140625 426.94921875 C148.25675093 417.01027037 153.09136216 410.02194494 160.546875 403.65234375 C168.92234243 397.29662399 178.63737806 397.11828243 188.75 398.1875 C197.79995327 400.16816498 203.56113165 405.32783126 209.98046875 411.5859375 C216.29449264 417.51702341 222.3107144 420.59595878 231 420.45703125 C239.94532584 419.58028767 246.92688428 414.83168584 252.75 408.1875 C264.1594763 391.90407265 266.99736345 372.47331781 263.92797852 353.02612305 C259.92120501 330.81355572 248.44254811 311.79138345 230.16015625 298.48828125 C223.16979905 293.68433533 215.76156981 289.9832616 207.75 287.1875 C206.92886719 286.89230469 206.10773437 286.59710938 205.26171875 286.29296875 C191.44431742 281.93070986 176.55403505 281.38234246 162.35986328 283.78369141 C159.28797596 284.25898623 156.20972243 284.59917707 153.12109375 284.94921875 C135.96284868 287.11970094 123.40804591 292.155434 108.84228516 301.31347656 C105.65403777 303.24565617 102.41440115 304.99440769 99.10546875 306.7109375 C98.01919189 307.27490234 96.93291504 307.83886719 95.8137207 308.41992188 C93.75581651 309.47999227 91.6934321 310.53143088 89.62573242 311.57226562 C82.67379899 315.2254149 76.61981341 319.3749007 73.6826992 326.93456078 C72.73264376 330.24803268 72.49352013 332.91789541 72.48257446 336.35513306 C72.47404449 337.57135849 72.46551453 338.78758392 72.45672607 340.04066467 C72.45742504 341.37557996 72.45834806 342.71049515 72.45947266 344.04541016 C72.45348276 345.46210584 72.44667615 346.87879827 72.43911743 348.29548645 C72.42147892 352.13727813 72.41676245 355.97898063 72.41548586 359.82080889 C72.41406039 362.23013124 72.4097829 364.63943124 72.40449142 367.04874802 C72.38598534 375.4814064 72.37781993 383.91400167 72.37939453 392.34667969 C72.38059018 400.15930742 72.35960343 407.97165631 72.3279072 415.78421366 C72.30155804 422.52345797 72.29103524 429.26261243 72.29230535 436.00190771 C72.29281035 440.01220139 72.28739042 444.0222482 72.26594925 448.03248978 C72.16553803 468.20216728 72.40506465 487.88433582 80 506.9375 C80.29664551 507.70787598 80.59329102 508.47825195 80.89892578 509.27197266 C86.03717251 522.30368022 92.36371867 536.94997754 102.51171875 546.91796875 C103.75 548.1875 103.75 548.1875 103.75 550.1875 C104.41 550.1875 105.07 550.1875 105.75 550.1875 C106.88131315 551.35309536 108.01213011 552.51917587 109.140625 553.6875 C116.92944746 560.94698501 125.44258403 564.77907187 136.06640625 564.484375 C140.05737063 564.04287093 143.0957147 562.85436698 146.75 561.1875 C147.53375 560.878125 148.3175 560.56875 149.125 560.25 C151.25207873 558.85921775 151.66619472 557.48261707 152.75 555.1875 C157.77944956 548.17675213 164.39024252 543.47986117 172.75 541.1875 C182.1383562 540.16288244 190.19280519 541.23484735 197.96875 546.765625 C204.17791111 551.90903458 208.61292005 557.34216703 210.75 565.1875 C212.12244547 580.44398688 208.43385686 590.32971609 198.75 602.1875 C193.88674263 607.95632943 188.0039559 612.46505715 182.0625 617.0625 C181.32523682 617.63468262 180.58797363 618.20686523 179.82836914 618.79638672 C176.27022285 621.49617108 173.07150876 623.84075763 168.75 625.1875 C168.75 625.8475 168.75 626.5075 168.75 627.1875 C169.40355469 627.38988281 170.05710937 627.59226562 170.73046875 627.80078125 C174.9715459 629.74849456 178.39520311 632.51405687 182.0625 635.375 C182.78373047 635.92736328 183.50496094 636.47972656 184.24804688 637.04882812 C196.6890434 646.65573217 209.34269504 657.6616316 211.625 674.125 C212.25838466 684.08922208 209.14302058 692.19776385 203.625 700.3125 C197.48894417 707.11794374 189.79981884 710.05660702 180.8515625 711.0625 C172.3030974 711.40702252 165.43422765 708.46093724 158.75 703.1875 C156.04354386 700.50284902 153.49837259 697.67950138 151.03588867 694.77026367 C146.70663306 689.74156988 142.29769106 686.99382594 135.5625 686.25 C126.86393356 685.68270219 119.35431877 688.99157565 112.703125 694.453125 C112.05859375 695.02546875 111.4140625 695.5978125 110.75 696.1875 C110.04359375 696.80109375 109.3371875 697.4146875 108.609375 698.046875 C94.95644106 710.74505832 86.51246261 728.4254645 80 745.625 C79.73034424 746.32657227 79.46068848 747.02814453 79.18286133 747.75097656 C78.29063928 750.20905518 77.52071832 752.6883949 76.75 755.1875 C76.41626373 756.21139328 76.08252747 757.23528656 75.73867798 758.29020691 C71.69506707 772.62699325 72.10357494 787.24865658 72.07663202 802.02095175 C72.06591765 805.89288856 72.0344078 809.76466662 72.00582886 813.63650513 C71.96097506 820.12679393 71.93110381 826.6170113 71.91113281 833.10742188 C71.88800768 840.58367333 71.84392657 848.05956958 71.78806698 855.53564346 C71.73422286 862.77310031 71.69227883 870.01057391 71.65667343 877.24814224 C71.64158568 880.30927654 71.62295637 883.37035784 71.60147476 886.4314537 C71.5769138 890.03821086 71.56302018 893.64486521 71.55701256 897.25169945 C71.55149034 899.18772305 71.53604543 901.1237106 71.52018738 903.05967712 C71.52112069 912.54435489 71.52478008 922.98647186 77.359375 930.9453125 C82.51097782 935.77704455 89.04726792 938.71663147 95.2890625 941.91259766 C99.24080954 943.95982216 103.11588032 946.14059947 107 948.3125 C107.754021 948.7264502 108.50804199 949.14040039 109.28491211 949.56689453 C112.67130322 951.43023919 116.00777427 953.31841061 119.25390625 955.41796875 C141.87490122 969.65290419 174.68205799 971.8910719 200.37353516 966.73535156 C221.43608932 961.87975555 239.3869345 949.49657404 251.46875 931.6484375 C263.03772416 913.05544331 267.70134669 891.8632079 263.5 870.15625 C260.34941596 857.68518817 254.70785255 845.56593378 243.75 838.1875 C236.78192323 834.04492771 230.59141922 831.38769215 222.375 832.75 C215.46239256 834.51342027 210.11654459 838.59718403 205.3125 843.75 C198.60783945 850.7650615 188.93671229 854.09810666 179.375 854.5 C170.53553495 854.24135817 163.15027731 851.28496849 156.75 845.1875 C149.58753834 837.34289914 147.12048389 830.03397539 147.40234375 819.43359375 C148.30224859 811.03111149 152.28079436 804.45378718 157.75 798.1875 C158.70519531 797.09115234 158.70519531 797.09115234 159.6796875 795.97265625 C175.56766786 778.94982015 199.55695513 771.28184028 222.3125 769.984375 C250.99496959 769.59325041 274.78952685 780.41735807 295.3125 800.3125 C317.62745251 822.66636263 326.95101971 855.67112677 327.00341797 886.57861328 C326.37715393 924.46317753 310.46604776 958.95874355 284.75 986.1875 C284.00492188 986.99703125 283.25984375 987.8065625 282.4921875 988.640625 C257.79427577 1014.56120563 220.33834299 1030.10914864 184.7734375 1031.46875 C161.97739013 1031.97902993 140.68252245 1028.67395022 119.37109375 1020.53125 C115.68361953 1019.1628669 113.61230575 1018.53008626 109.75 1019.1875 C106.50852729 1020.99575957 103.43703819 1022.81342361 101.75 1026.1875 C101.09 1026.1875 100.43 1026.1875 99.75 1026.1875 C99.48272095 1026.77944153 99.21544189 1027.37138306 98.94006348 1027.98126221 C97.73184113 1030.2211644 96.49923069 1031.69178548 94.70898438 1033.48730469 C94.09494751 1034.10764587 93.48091064 1034.72798706 92.8482666 1035.36712646 C92.18677612 1036.02456848 91.52528564 1036.6820105 90.84375 1037.359375 C90.16324585 1038.0417926 89.4827417 1038.72421021 88.78161621 1039.42730713 C87.34498803 1040.86529427 85.90583915 1042.30076692 84.46435547 1043.73388672 C82.25123571 1045.93627028 80.04901528 1048.14914933 77.84765625 1050.36328125 C76.45116197 1051.75845454 75.05404773 1053.15300762 73.65625 1054.546875 C72.99475952 1055.21241394 72.33326904 1055.87795288 71.6517334 1056.56365967 C71.03769653 1057.17139221 70.42365967 1057.77912476 69.79101562 1058.40527344 C69.25077759 1058.94392029 68.71053955 1059.48256714 68.15393066 1060.03753662 C66.75 1061.1875 66.75 1061.1875 64.75 1061.1875 C64.75 1061.8475 64.75 1062.5075 64.75 1063.1875 C63.52075195 1064.39770508 63.52075195 1064.39770508 61.67578125 1065.89453125 C55.42413722 1071.21235403 49.7112744 1077.07713719 43.92114258 1082.88598633 C41.92837878 1084.88414592 39.93027973 1086.8768596 37.93164062 1088.86914062 C36.65592894 1090.14551252 35.38052717 1091.42219426 34.10546875 1092.69921875 C33.51170944 1093.29095383 32.91795013 1093.8826889 32.30619812 1094.49235535 C30.02363014 1096.78789776 27.90138502 1098.98201762 25.9777832 1101.59301758 C25.57261475 1102.11919678 25.16744629 1102.64537598 24.75 1103.1875 C24.09 1103.1875 23.43 1103.1875 22.75 1103.1875 C22.3478125 1104.1465625 22.3478125 1104.1465625 21.9375 1105.125 C20.75 1107.1875 20.75 1107.1875 17.75 1108.1875 C17.75 1108.8475 17.75 1109.5075 17.75 1110.1875 C17.255 1110.579375 16.76 1110.97125 16.25 1111.375 C13.89125826 1114.22514627 14.47098542 1116.58263161 14.75 1120.1875 C16.06791887 1123.40712887 16.06791887 1123.40712887 17.9375 1126.5625 C30.26006814 1149.73105538 31.7454125 1178.08657352 24.42724609 1203.08789062 C14.87599327 1232.69884027 -5.99827959 1256.07046975 -33.25 1270.5 C-59.1391144 1282.79994264 -88.20599164 1284.31268042 -115.2421875 1274.8359375 C-127.0645181 1270.43790486 -137.6224262 1264.31555788 -147.25 1256.1875 C-148.45076172 1255.18783203 -148.45076172 1255.18783203 -149.67578125 1254.16796875 C-171.73240272 1235.12998288 -184.84497938 1208.85631132 -187.08984375 1179.91796875 C-188.25806432 1160.00123272 -184.69573138 1140.79727698 -175.38671875 1123.1171875 C-173.8959331 1119.27495644 -173.51973791 1117.29575808 -174.25 1113.1875 C-178.90680645 1106.299637 -184.81439279 1100.31860908 -190.66625977 1094.44897461 C-191.46573029 1093.63957428 -192.26520081 1092.83017395 -193.08889771 1091.99624634 C-195.70093902 1089.35529921 -198.32043553 1086.72192747 -200.94140625 1084.08984375 C-201.84103529 1083.18455996 -202.74066433 1082.27927616 -203.66755486 1081.34655952 C-207.92991036 1077.05743205 -212.19569309 1072.77179441 -216.46756321 1068.49214739 C-221.37920886 1063.57150564 -226.27742119 1058.6379818 -231.16463429 1053.69307512 C-235.41885912 1049.39039529 -239.68946492 1045.10435778 -243.96626091 1040.82409859 C-245.77694143 1039.00736541 -247.58261923 1037.18563184 -249.3831501 1035.35883904 C-251.89589556 1032.81203744 -254.42682743 1030.28478197 -256.96313477 1027.76147461 C-257.70151077 1027.00466904 -258.43988678 1026.24786346 -259.20063782 1025.46812439 C-263.38207591 1021.35356125 -266.09000062 1019.16952718 -272.25 1019.1875 C-275.01292188 1019.69388816 -275.01292188 1019.69388816 -277.62109375 1020.734375 C-279.0894165 1021.25825806 -279.0894165 1021.25825806 -280.58740234 1021.79272461 C-281.61043457 1022.17050049 -282.6334668 1022.54827637 -283.6875 1022.9375 C-321.92703041 1036.38140229 -364.27283376 1033.83691467 -400.89453125 1016.38671875 C-412.65216212 1010.5541932 -423.42390647 1003.94250277 -433.25 995.1875 C-434.07628906 994.48109375 -434.90257812 993.7746875 -435.75390625 993.046875 C-446.54699746 983.6557033 -455.64379443 973.31831899 -463.25 961.1875 C-463.62898438 960.58454102 -464.00796875 959.98158203 -464.3984375 959.36035156 C-483.31749113 928.74386294 -489.95167167 890.57449202 -482.25 855.375 C-475.50912091 827.02999117 -460.28253817 801.54137274 -435.6328125 785.25390625 C-425.62329443 779.13954706 -415.68364401 774.83627201 -404.25 772.1875 C-403.27675781 771.96191406 -402.30351562 771.73632812 -401.30078125 771.50390625 C-377.18587632 766.73356353 -350.94703709 772.18793054 -330.25 785.1875 C-326.74472452 787.68003109 -323.469535 790.33769958 -320.25 793.1875 C-319.27933594 794.01701172 -319.27933594 794.01701172 -318.2890625 794.86328125 C-311.54103937 801.03669106 -306.66385267 809.3596402 -306.01171875 818.54296875 C-305.79459253 829.7535382 -307.5428078 837.04752033 -315.328125 845.3984375 C-322.21569321 851.81003555 -330.01886435 854.72972282 -339.4375 854.5 C-350.358805 853.28652167 -357.81482555 848.99680588 -365.828125 841.90625 C-372.43843248 836.21916982 -377.96963 832.02507664 -386.96875 832.2578125 C-396.16324734 833.47169277 -404.26995295 838.21099002 -410.58984375 844.94921875 C-422.30516152 860.74422365 -425.24681851 880.36324408 -422.48071289 899.47412109 C-418.78331147 921.83109191 -406.98030871 940.8148229 -388.48046875 954.0859375 C-365.22238118 969.21634997 -339.65661933 971.36812835 -312.98730469 966.65722656 C-311.15819182 966.3433474 -309.32524017 966.0510922 -307.48925781 965.78027344 C-291.55030799 963.4236933 -279.89111709 957.61174371 -266.34960938 949.0703125 C-260.08447238 945.26464642 -253.5303488 941.95586773 -247.00219727 938.62695312 C-239.77873484 934.83039261 -235.09852501 931.28967032 -231.87493896 923.49988174 C-230.44150826 918.1959414 -230.81676791 912.59680705 -230.83007812 907.14013672 C-230.82272971 905.71506081 -230.81414124 904.28999085 -230.80441284 902.8649292 C-230.78224484 899.0044997 -230.77926458 895.14428405 -230.78116035 891.28379965 C-230.78128052 888.04454084 -230.77269588 884.80532655 -230.76438284 881.56608021 C-230.74515761 873.90421182 -230.7422583 866.24245231 -230.74902344 858.58056641 C-230.75563077 850.72866964 -230.73293232 842.87724663 -230.69570971 835.02544582 C-230.66477288 828.24878459 -230.65367932 821.47227363 -230.65754652 814.69554341 C-230.65959322 810.66450758 -230.65446655 806.63383872 -230.62965393 802.60287094 C-230.53136902 785.27482311 -230.84022985 768.85038199 -236.25 752.1875 C-236.47966461 751.46559353 -236.70932922 750.74368706 -236.94595337 749.99990463 C-243.59092778 729.3781787 -254.70449193 708.54851557 -271.25 694.1875 C-271.78753906 693.71957031 -272.32507813 693.25164063 -272.87890625 692.76953125 C-279.64654556 687.41508809 -287.12603274 685.63375236 -295.6328125 686.47265625 C-303.15389655 688.52692249 -307.69485936 692.23742295 -312.625 698.125 C-318.74457113 705.03926297 -324.40445287 709.5891933 -333.75 711.125 C-344.20868556 711.75215222 -353.4674492 708.00939219 -361.25 701.1875 C-368.42202536 692.06077434 -371.19422978 683.81941858 -369.90625 672.30078125 C-366.17695622 654.60883395 -350.03376461 642.33063462 -336.25 632.125 C-335.5904834 631.63523682 -334.9309668 631.14547363 -334.25146484 630.64086914 C-329.49898584 627.1875 -329.49898584 627.1875 -327.25 627.1875 C-330.75132853 623.40786074 -334.73391806 620.52316381 -338.875 617.5 C-351.43133575 608.16640038 -365.72219901 597.37128705 -369.25 581.1875 C-370.35721225 569.76937369 -369.3768042 561.05300175 -362 551.9375 C-356.33406772 545.84692611 -349.54680951 541.7655782 -341.171875 540.8515625 C-331.60034207 540.73368648 -323.32321914 542.30544895 -316.25 549.1875 C-315.14002928 550.47418248 -314.03646817 551.7664075 -312.9375 553.0625 C-308.35436665 558.42787492 -302.99851997 563.74661763 -295.68359375 564.42578125 C-285.17796305 564.68602504 -277.91896066 562.04459038 -269.84375 555.359375 C-268.25 554.1875 -268.25 554.1875 -266.25 554.1875 C-266.25 553.5275 -266.25 552.8675 -266.25 552.1875 C-265.59 552.1875 -264.93 552.1875 -264.25 552.1875 C-263.99992188 551.61644531 -263.74984375 551.04539062 -263.4921875 550.45703125 C-262.07653835 547.87057793 -260.36934766 546.04832757 -258.375 543.875 C-247.0631919 530.20580378 -240.03094296 513.11939346 -235.25 496.1875 C-234.88725479 494.9303569 -234.52450958 493.67321381 -234.15077209 492.37797546 C-230.13664772 476.98762838 -230.64339887 461.21595539 -230.67976642 445.43703294 C-230.68493699 442.17108518 -230.67753702 438.9052111 -230.67029434 435.63927096 C-230.65341681 427.93742453 -230.65674566 420.23577692 -230.67358398 412.53393555 C-230.69057929 404.61221651 -230.67454234 396.6910456 -230.6423611 388.76938611 C-230.61564153 381.93067688 -230.60839302 375.09213807 -230.61687618 368.25338191 C-230.62178797 364.18439456 -230.6196819 360.11573834 -230.59908867 356.04679298 C-230.58068781 352.23045148 -230.58674265 348.41490167 -230.61128807 344.59860229 C-230.61627789 343.2038633 -230.61285377 341.80906336 -230.60013962 340.4143734 C-230.5335759 332.48280588 -230.71744155 326.24821943 -236.25 320.1875 C-242.48284434 314.42631532 -250.21084923 310.81870314 -257.6875 306.9375 C-272.06752224 299.46617473 -272.06752224 299.46617473 -276.59765625 296.19921875 C-296.1907384 282.1687762 -330.85018842 280.09860522 -353.99609375 283.890625 C-375.65797718 288.10930345 -395.48722717 299.97379059 -407.96118164 318.38989258 C-415.97760547 330.77187887 -422.61990942 345.22284865 -423.25 360.1875 C-423.3015625 361.27289063 -423.353125 362.35828125 -423.40625 363.4765625 C-423.82429838 380.30300998 -420.59518176 396.9086336 -409.42578125 409.9921875 C-403.04083081 416.43445347 -396.04344103 420.00305306 -386.9375 420.625 C-378.64377847 420.35791405 -372.86760721 416.07758874 -367.3125 410.25 C-359.34545992 401.94893805 -351.44055761 398.37695283 -339.96875 397.24609375 C-330.55872866 397.09782661 -323.06721515 399.70656004 -316.25 406.1875 C-315.69570313 406.7134375 -315.14140625 407.239375 -314.5703125 407.78125 C-308.44891477 414.2376496 -306.03741165 421.36396229 -305.75 430.1875 C-306.08343046 440.43492947 -309.82894519 447.43407632 -316.25 455.1875 C-316.84039062 455.98800781 -317.43078125 456.78851563 -318.0390625 457.61328125 C-320.59575663 460.59006824 -323.43491113 462.82195306 -326.625 465.0625 C-327.24076904 465.49522217 -327.85653809 465.92794434 -328.4909668 466.3737793 C-349.95270209 481.1084168 -375.84885914 486.7782847 -401.5625 482.0625 C-419.32213411 478.17982696 -437.12555887 470.06489282 -450.25 457.1875 C-450.25 456.5275 -450.25 455.8675 -450.25 455.1875 C-450.91 455.1875 -451.57 455.1875 -452.25 455.1875 C-475.71229142 430.88195498 -485.87762859 396.500911 -485.3984375 363.29296875 C-483.61465064 325.97426993 -469.9511114 292.37726181 -444.25 265.1875 C-443.50363281 264.37667969 -442.75726563 263.56585938 -441.98828125 262.73046875 C-417.49056244 237.01798703 -380.52577992 221.72433085 -345.25 220.1875 C-335.91682729 219.99130323 -326.58366842 220.05873242 -317.25 220.1875 C-317.25 220.8475 -317.25 221.5075 -317.25 222.1875 C-316.30125 222.14367187 -315.3525 222.09984375 -314.375 222.0546875 C-309.50537489 222.06202127 -304.961741 223.16720167 -300.25 224.3125 C-299.32735352 224.53188232 -298.40470703 224.75126465 -297.45410156 224.97729492 C-291.74562669 226.39450653 -286.39559679 228.17118221 -281 230.5 C-273.31664296 233.88827822 -273.31664296 233.88827822 -265.25 233.1875 C-255.49678479 226.01202174 -247.12786889 216.21096003 -238.59375 207.6640625 C-236.99872165 206.06970886 -235.40354497 204.47550359 -233.80822754 202.88143921 C-230.48510935 199.55978714 -227.16378629 196.23635347 -223.84375 192.91162109 C-219.58563597 188.64777774 -215.3230039 184.3884837 -211.05904388 180.13048744 C-207.77336104 176.84841185 -204.49005577 173.56396616 -201.20747375 170.27878952 C-199.63570062 168.70634926 -198.06318418 167.13465163 -196.48991394 165.56370926 C-194.30009505 163.37642307 -192.11349531 161.1859692 -189.92773438 158.99462891 C-188.95220612 158.02213699 -188.95220612 158.02213699 -187.95697021 157.02999878 C-187.36285339 156.43306213 -186.76873657 155.83612549 -186.15661621 155.22109985 C-185.64049522 154.70460184 -185.12437424 154.18810383 -184.59261322 153.65595436 C-183.02845912 152.01992777 -183.02845912 152.01992777 -181.25 149.1875 C-180.59 149.1875 -179.93 149.1875 -179.25 149.1875 C-179.25 148.5275 -179.25 147.8675 -179.25 147.1875 C-178.59 147.1875 -177.93 147.1875 -177.25 147.1875 C-176.940625 146.56875 -176.63125 145.95 -176.3125 145.3125 C-175.625 143.9375 -174.9375 142.5625 -174.25 141.1875 C-174.13972352 134.79146408 -176.00888536 130.37436011 -179 124.8125 C-191.84283325 100.78406624 -192.78863103 70.02680772 -185.25 44.1875 C-180.07492644 27.45728918 -171.05640387 12.97023742 -159.25 0.1875 C-158.64542969 -0.48667969 -158.04085938 -1.16085938 -157.41796875 -1.85546875 C-139.27194686 -21.14941417 -111.98670502 -32.25136513 -85.78125 -33.74609375 C-52.80846249 -34.36615723 -23.85100545 -22.66031563 0 0 Z M-117.83203125 42.9921875 C-125.80458934 53.0436658 -131.20035848 65.96800962 -130.53125 79.015625 C-128.36019724 95.78097684 -122.44993278 109.45627202 -108.83984375 120.06640625 C-96.39397156 128.14104528 -82.03856013 130.25908976 -67.62890625 127.4921875 C-54.21557574 123.73203124 -43.48802864 116.16442191 -35.9375 104.375 C-28.70546676 91.37742915 -26.49909375 77.62848907 -30.25 63.1875 C-34.60182056 49.39503646 -43.3494057 38.75392856 -55.98046875 31.65234375 C-76.84584962 21.55809038 -102.23105515 25.19551846 -117.83203125 42.9921875 Z M-123.03312683 184.22673035 C-123.73113592 184.86948095 -124.42914501 185.51223156 -125.14830589 186.17445946 C-128.3770251 189.26698498 -131.57129059 192.38570818 -134.7199707 195.55981445 C-135.76788033 196.60991447 -135.76788033 196.60991447 -136.83695984 197.68122864 C-138.33851448 199.18656064 -139.83891388 200.69304572 -141.33825111 202.20058632 C-143.71066344 204.58585243 -146.08626484 206.96790136 -148.46269226 209.34916687 C-153.49878491 214.39663392 -158.530918 219.44803703 -163.5625 224.5 C-169.41244332 230.37354916 -175.26400093 236.24547108 -181.11977196 242.11321068 C-183.46115568 244.46108054 -185.79951123 246.81193823 -188.13777161 249.16291809 C-189.56736765 250.59614517 -190.99710345 252.02923288 -192.42700195 253.4621582 C-193.07690094 254.11722351 -193.72679993 254.77228882 -194.39639282 255.44720459 C-195.29396553 256.34488304 -195.29396553 256.34488304 -196.20967102 257.26069641 C-196.72746785 257.78071385 -197.24526468 258.3007313 -197.77875233 258.83650684 C-199.25 260.1875 -199.25 260.1875 -202.25 262.1875 C-200.76873643 265.62680583 -198.82572554 267.85704338 -196.1796875 270.48828125 C-195.365 271.30103516 -194.5503125 272.11378906 -193.7109375 272.95117188 C-192.43089844 274.2128418 -192.43089844 274.2128418 -191.125 275.5 C-190.29484375 276.32951172 -189.4646875 277.15902344 -188.609375 278.01367188 C-184.17397058 282.41779209 -179.66715375 286.6789613 -174.9152832 290.74047852 C-172.57372855 292.77513538 -170.41320026 294.96583487 -168.25 297.1875 C-167.363125 298.05375 -166.47625 298.92 -165.5625 299.8125 C-163.25 302.1875 -163.25 302.1875 -161.25 305.1875 C-160.59 305.1875 -159.93 305.1875 -159.25 305.1875 C-158.9096875 306.05375 -158.9096875 306.05375 -158.5625 306.9375 C-157.35375091 309.31958919 -157.35375091 309.31958919 -155.0625 310.9375 C-152.72036001 312.81121199 -151.04425436 314.49015853 -149.125 316.75 C-143.39920835 323.43632751 -137.14848789 329.79710042 -130.4375 335.5 C-124.49769252 340.55937672 -119.1149471 346.24026833 -113.63525391 351.78637695 C-112.51064794 352.92386614 -111.38106592 354.05643408 -110.25 355.1875 C-110.13323764 333.23905527 -110.04504657 311.2906617 -109.99093914 289.34196949 C-109.96514918 279.1509698 -109.92998348 268.960163 -109.87280273 258.76928711 C-109.82299207 249.88769408 -109.79071475 241.00624073 -109.77955753 232.1245119 C-109.7730348 227.42091914 -109.75768818 222.71772601 -109.72134972 218.01426125 C-109.6874271 213.58765267 -109.67693942 209.16160857 -109.68446159 204.73488235 C-109.68308537 203.10988104 -109.6731303 201.48486097 -109.65397263 199.859972 C-109.62909084 197.64084297 -109.63507432 195.42384451 -109.64872742 193.20466614 C-109.64411845 191.96301099 -109.63950949 190.72135584 -109.63476086 189.44207478 C-110.42711071 185.25059594 -111.88881185 183.74198758 -115.25 181.1875 C-119.66760488 181.1875 -119.99657181 181.41006043 -123.03312683 184.22673035 Z M-47.25 184.1875 C-48.56728165 185.27974015 -48.56728165 185.27974015 -48.37304783 187.96550083 C-48.37212604 189.2182175 -48.37120424 190.47093416 -48.37025452 191.76161194 C-48.37110894 192.45667026 -48.37196337 193.15172859 -48.37284368 193.86784929 C-48.37450049 196.21408986 -48.36897387 198.56026008 -48.36352539 200.90649414 C-48.36324354 202.58149718 -48.36340122 204.25650033 -48.3639679 205.9315033 C-48.36425594 210.49329279 -48.35835814 215.05505623 -48.35139394 219.61683965 C-48.34516151 224.37879 -48.34455669 229.1407409 -48.34336853 233.9026947 C-48.34025489 242.92665566 -48.33204106 251.95060456 -48.32201904 260.9745602 C-48.31085893 271.24524487 -48.30534771 281.51593009 -48.30032361 291.78661931 C-48.28985847 312.92025294 -48.27225839 334.05387571 -48.25 355.1875 C-43.37961401 351.12554723 -38.78653996 346.87268114 -34.30493164 342.38769531 C-33.65042023 341.73654251 -32.99590881 341.08538971 -32.32156372 340.414505 C-30.18180134 338.28416163 -28.0457539 336.15014281 -25.91015625 334.015625 C-24.41807744 332.52676188 -22.9259244 331.03797314 -21.43370056 329.54925537 C-18.3195019 326.44102293 -15.20735531 323.33075228 -12.09643555 320.21923828 C-8.10093891 316.22363943 -4.09857273 312.23499779 -0.09446049 308.24803543 C2.98259112 305.18206506 6.05512484 302.1115984 9.1263752 299.03981781 C10.60123122 297.56614498 12.07771622 296.09410062 13.55583 294.62369537 C15.6122013 292.57705825 17.66221521 290.5242596 19.71069336 288.46972656 C20.32619553 287.8598439 20.94169769 287.24996124 21.57585144 286.62159729 C24.7009667 283.91163554 24.7009667 283.91163554 25.75 280.1875 C27.07 279.5275 28.39 278.8675 29.75 278.1875 C29.75 277.5275 29.75 276.8675 29.75 276.1875 C30.41 276.1875 31.07 276.1875 31.75 276.1875 C33.42080281 274.53589219 33.42080281 274.53589219 35.125 272.4375 C37.56617866 269.5631268 40.02649992 266.80206008 42.75 264.1875 C41.45865685 261.35028536 40.10279223 259.28961294 37.90344238 257.0869751 C37.32300674 256.50089981 36.74257111 255.91482452 36.14454651 255.31098938 C35.50967819 254.68016953 34.87480988 254.04934967 34.22070312 253.39941406 C33.55062729 252.72583359 32.88055145 252.05225311 32.19017029 251.35826111 C29.97553349 249.13482646 27.7536667 246.91878134 25.53125 244.703125 C23.99160957 243.16213768 22.45226616 241.62085354 20.91320801 240.07928467 C17.68838404 236.85151234 14.4599702 233.62738528 11.22900391 230.40576172 C7.07911175 226.26728296 2.93828703 222.11986601 -1.19991302 217.96969986 C-4.37548746 214.78691544 -7.55578894 211.60888898 -10.73756409 208.43230438 C-12.26692218 206.90428418 -13.79478573 205.37476668 -15.32115173 203.84375763 C-17.44954684 201.71030943 -19.58420226 199.58333432 -21.72070312 197.45800781 C-22.35557144 196.81909103 -22.99043976 196.18017426 -23.64454651 195.52189636 C-26.42985459 192.2987461 -26.42985459 192.2987461 -30.25 191.1875 C-30.476875 190.630625 -30.70375 190.07375 -30.9375 189.5 C-33.10453357 185.68189324 -35.63078645 182.83518542 -39.75 181.1875 C-43.01687521 181.1875 -44.63615421 182.29972248 -47.25 184.1875 Z M-163.25 394.1875 C-163.25808685 394.98024826 -163.26617371 395.77299652 -163.27450562 396.58976746 C-163.35334354 404.16216723 -163.44087875 411.73439837 -163.53752708 419.30659008 C-163.58689293 423.1969536 -163.63321269 427.08729742 -163.671875 430.9777832 C-164.1113395 474.58104792 -164.1113395 474.58104792 -168.5 494.25 C-168.71688477 495.24620361 -168.93376953 496.24240723 -169.15722656 497.26879883 C-179.61973095 544.01148825 -204.06189822 589.66333582 -245.25 616.1875 C-248.95066888 618.44130447 -252.71264993 620.5598555 -256.51953125 622.62890625 C-259.28887903 624.0506701 -259.28887903 624.0506701 -261.25 626.1875 C-260.74774902 626.46311768 -260.24549805 626.73873535 -259.72802734 627.02270508 C-216.81931825 650.74622318 -187.45536082 689.21933752 -173.75390625 736.2578125 C-167.18832816 759.64422537 -164.230071 783.3281099 -163.93359375 807.578125 C-163.91296241 809.0182954 -163.89196463 810.45846059 -163.87062073 811.89862061 C-163.81603673 815.64670531 -163.76635316 819.39483868 -163.71777344 823.14300537 C-163.66708629 826.98470268 -163.61164946 830.82633133 -163.55664062 834.66796875 C-163.44984078 842.17442064 -163.34823016 849.68093054 -163.25 857.1875 C-157.24385691 852.25408986 -151.77862743 846.8345815 -146.30941963 841.32208443 C-144.65825459 839.6579951 -143.00384557 837.99719042 -141.34861755 836.33714294 C-137.23979004 832.21504281 -133.13644703 828.08749728 -129.03295898 823.96008301 C-125.55688095 820.4641567 -122.07868138 816.97036662 -118.59773064 813.47929192 C-116.98058472 811.85573992 -115.36651973 810.22916925 -113.75257874 808.60243225 C-91.56280053 786.29936547 -91.56280053 786.29936547 -79.6484375 786.15625 C-63.23539589 787.06054981 -53.62665183 799.64560727 -42.71875 810.69140625 C-41.75171741 811.66540608 -40.78430243 812.63902638 -39.81652832 813.61228943 C-35.75576799 817.69721946 -31.70111274 821.78817324 -27.65039062 825.88305664 C-25.15325979 828.40688567 -22.65134438 830.92588781 -20.14637756 833.4419384 C-18.7366878 834.86085109 -17.33259844 836.28532066 -15.92858887 837.70985413 C-15.08010376 838.56171799 -14.23161865 839.41358185 -13.35742188 840.29125977 C-12.61036987 841.0457692 -11.86331787 841.80027863 -11.09362793 842.57765198 C-9.40684423 844.40674484 -9.40684423 844.40674484 -7.25 844.1875 C-7.023125 844.744375 -6.79625 845.30125 -6.5625 845.875 C-3.85447658 850.64627936 0.50604771 853.83214744 4.75 857.1875 C4.75808685 856.41980789 4.76617371 855.65211578 4.77450562 854.86116028 C4.85337893 847.52421549 4.94092274 840.1874438 5.03752708 832.85071278 C5.0868706 829.08141858 5.13318929 825.31214445 5.171875 821.54272461 C5.70337434 770.46855434 12.79965148 720.53606375 43.75 678.1875 C44.15041504 677.63304199 44.55083008 677.07858398 44.96337891 676.50732422 C60.55137418 655.06833756 79.50468931 638.83464472 102.75 626.1875 C99.58684369 623.7070393 96.26945821 621.67182693 92.8125 619.625 C50.30069225 593.81425958 24.10068471 549.39861364 12.06640625 501.953125 C7.3653106 482.1914284 5.69298335 462.30583848 5.43359375 442.0390625 C5.41294691 440.64659113 5.39194892 439.25412492 5.37062073 437.86166382 C5.31619587 434.2484158 5.26644593 430.63511902 5.21777344 427.02178955 C5.16696586 423.31396295 5.11159355 419.60620457 5.05664062 415.8984375 C4.95003715 408.66151658 4.84838757 401.42453778 4.75 394.1875 C4.27876709 394.59452148 3.80753418 395.00154297 3.32202148 395.42089844 C2.38724976 396.22575684 2.38724976 396.22575684 1.43359375 397.046875 C0.51018188 397.84303223 0.51018188 397.84303223 -0.43188477 398.65527344 C-1.98065867 399.96051112 -3.57955944 401.20588595 -5.1875 402.4375 C-5.868125 403.015 -6.54875 403.5925 -7.25 404.1875 C-7.25 404.8475 -7.25 405.5075 -7.25 406.1875 C-7.91 406.1875 -8.57 406.1875 -9.25 406.1875 C-9.25 406.8475 -9.25 407.5075 -9.25 408.1875 C-9.81048035 408.42135406 -10.37096069 408.65520813 -10.94842529 408.89614868 C-13.82485984 410.51003831 -15.76454753 412.49293167 -18.07519531 414.84912109 C-18.7736834 415.55680885 -18.7736834 415.55680885 -19.48628235 416.27879333 C-20.49403411 417.30081724 -21.49952808 418.3250713 -22.50299835 419.35129929 C-24.09627781 420.97948805 -25.69665577 422.60037799 -27.29925537 424.21939087 C-31.85380421 428.82271919 -36.39714769 433.43698403 -40.93115234 438.06054688 C-43.70873194 440.89197193 -46.49620367 443.71334835 -49.28981781 446.52894974 C-50.34770182 447.5991787 -51.40178586 448.67317867 -52.45182037 449.75111008 C-59.99081988 457.48851424 -67.02618379 464.10216327 -78.375 464.5 C-94.21048338 464.18950033 -105.57045397 450.16296312 -115.9080677 439.67976189 C-117.76546613 437.79643629 -119.6293922 435.91978278 -121.49497986 434.04457092 C-125.43988694 430.07704798 -129.37673414 426.10158833 -133.3125 422.125 C-137.908081 417.48216795 -142.50693372 412.84267163 -147.11419487 408.21142769 C-148.95192504 406.36072134 -150.78354641 404.50411097 -152.61500549 402.64720154 C-153.73140628 401.5235427 -154.84808487 400.40015979 -155.96508789 399.27709961 C-156.72786797 398.49882057 -156.72786797 398.49882057 -157.50605774 397.70481873 C-158.7166742 396.49383635 -159.97886236 395.3347923 -161.25 394.1875 C-161.91 394.1875 -162.57 394.1875 -163.25 394.1875 Z M-112.75740719 898.57185936 C-113.73660295 899.55243781 -113.73660295 899.55243781 -114.73558044 900.55282593 C-115.4829245 901.29879532 -116.23026855 902.04476471 -117.0002594 902.81333923 C-118.23847694 904.05694969 -118.23847694 904.05694969 -119.50170898 905.32568359 C-120.36671021 906.19053879 -121.23171143 907.05539398 -122.1229248 907.94645691 C-124.50283766 910.326949 -126.88050259 912.70964618 -129.25722003 915.09332609 C-131.74091217 917.58325333 -134.22742087 920.07036453 -136.71363831 922.55776978 C-141.42709151 927.27433726 -146.13798939 931.99344854 -150.84798628 936.71346724 C-156.20046698 942.07709226 -161.55575746 947.43790804 -166.91129959 952.79847598 C-177.48268974 963.3799036 -188.05085171 973.96454841 -198.61675167 984.55145836 C-199.82726449 985.76404149 -201.03845158 986.97595158 -202.25 988.1875 C-195.03455457 995.9687447 -187.8033872 1003.73208209 -180.3125 1011.25 C-179.81854736 1011.74846436 -179.32459473 1012.24692871 -178.81567383 1012.76049805 C-176.20345774 1015.36228786 -173.52440585 1017.82674616 -170.71875 1020.21875 C-165.04435227 1025.13854126 -159.79364907 1030.49475033 -154.49536133 1035.81176758 C-152.69137915 1037.62110933 -150.88211335 1039.42504319 -149.07226562 1041.22851562 C-143.67246947 1046.6270115 -138.33339607 1051.98691005 -133.50415039 1057.91430664 C-133.09028076 1058.33446045 -132.67641113 1058.75461426 -132.25 1059.1875 C-131.59 1059.1875 -130.93 1059.1875 -130.25 1059.1875 C-129.98703125 1059.78046875 -129.7240625 1060.3734375 -129.453125 1060.984375 C-127.4900503 1064.57909621 -124.67140296 1066.98037366 -121.25 1069.1875 C-117.65697102 1069.82156394 -116.0946455 1069.66689339 -112.9375 1067.875 C-110.53355886 1065.47105886 -110.26602103 1063.57310878 -110.12695217 1060.22587299 C-110.12787396 1059.00449729 -110.12879576 1057.78312159 -110.12974548 1056.5247345 C-110.12889106 1055.84430153 -110.12803663 1055.16386856 -110.12715632 1054.46281642 C-110.12550647 1052.1780652 -110.1310148 1049.89338706 -110.13647461 1047.60864258 C-110.13675661 1045.97275291 -110.13659849 1044.33686311 -110.1360321 1042.70097351 C-110.13574465 1038.25500092 -110.14163306 1033.80905519 -110.14860606 1029.36308885 C-110.15484817 1024.71859768 -110.15544408 1020.07410592 -110.15663147 1015.42961121 C-110.15974225 1006.63237888 -110.16795224 997.83515896 -110.17798096 989.0379321 C-110.18914994 979.02354448 -110.19465453 969.00915627 -110.19967639 958.99476397 C-110.21013505 938.39233572 -110.22772961 917.78991864 -110.25 897.1875 C-111.46835159 897.07476558 -111.46835159 897.07476558 -112.75740719 898.57185936 Z M-48.25 897.1875 C-48.34338474 919.02285501 -48.41395046 940.85817716 -48.45724869 962.69369125 C-48.47788595 972.83199483 -48.50602877 982.97017443 -48.55175781 993.10839844 C-48.59158996 1001.94346964 -48.61742434 1010.77845106 -48.62635398 1019.61360955 C-48.63157488 1024.2930743 -48.64386997 1028.9722822 -48.67292023 1033.65166473 C-48.70003215 1038.05441461 -48.7084536 1042.45680135 -48.70243073 1046.85962677 C-48.70353286 1048.4769742 -48.71151201 1050.09433354 -48.7268219 1051.71160889 C-48.74668473 1053.91770509 -48.74195407 1056.12242511 -48.73101807 1058.32855225 C-48.73470524 1059.56375484 -48.73839241 1060.79895744 -48.74219131 1062.07159042 C-48.15395746 1065.79551535 -47.25755547 1066.97604007 -44.25 1069.1875 C-40.79271642 1069.93761367 -40.79271642 1069.93761367 -37.25 1069.1875 C-34.583492 1067.02161155 -34.583492 1067.02161155 -32.25 1064.1875 C-31.30125 1063.424375 -30.3525 1062.66125 -29.375 1061.875 C-26.22015294 1059.30109665 -23.67982443 1056.32916506 -21.04296875 1053.23828125 C-18.266829 1050.062958 -15.26035522 1047.13817857 -12.25 1044.1875 C-10.58251916 1042.52164791 -8.91600108 1040.85483199 -7.25 1039.1875 C17.75 1014.1875 17.75 1014.1875 20.49829102 1011.44140625 C21.85730186 1010.08106925 23.21206982 1008.71644826 24.55859375 1007.34375 C27.32970819 1004.52611805 30.09884709 1001.84446542 33.1875 999.375 C34.4559375 998.2921875 34.4559375 998.2921875 35.75 997.1875 C35.75 996.5275 35.75 995.8675 35.75 995.1875 C36.3275 994.94 36.905 994.6925 37.5 994.4375 C40.0502997 993.02066683 41.76785701 991.31122463 43.75 989.1875 C42.39267227 986.1566202 40.87076341 984.0588144 38.5262146 981.71647644 C37.86189423 981.04796158 37.19757385 980.37944672 36.51312256 979.69067383 C35.78482239 978.96799316 35.05652222 978.2453125 34.30615234 977.50073242 C33.15456131 976.34629387 33.15456131 976.34629387 31.97970581 975.16853333 C29.43664549 972.62176435 26.8864464 970.0822765 24.3359375 967.54296875 C22.56397652 965.77220021 20.7923854 964.00106148 19.02114868 962.22956848 C15.30348194 958.51346705 11.5825931 954.80062428 7.85888672 951.09057617 C3.09907617 946.34816132 -1.65371954 941.59878577 -6.404459 936.84728527 C-10.06571092 933.18630619 -13.72957092 929.52794668 -17.39429855 925.87044716 C-19.1466738 924.12124273 -20.89845405 922.37144201 -22.64961624 920.62102318 C-25.10717597 918.16564707 -27.56801111 915.71360108 -30.02978516 913.26245117 C-30.74593994 912.5458432 -31.46209473 911.82923523 -32.19995117 911.09091187 C-39.56775111 903.27538851 -39.56775111 903.27538851 -48.25 897.1875 Z M-118.25 1139.1875 C-120.95788043 1142.68906952 -123.18221401 1146.27680661 -125.25 1150.1875 C-125.68441406 1150.99316406 -126.11882812 1151.79882812 -126.56640625 1152.62890625 C-131.21127274 1162.97061247 -130.92753196 1177.0059979 -127.6875 1187.75 C-121.65934594 1202.77793336 -111.78188594 1212.51003836 -97.25 1219.1875 C-84.23390045 1224.08077051 -71.08320489 1223.2461703 -58.25 1218.1875 C-44.97225531 1211.46351391 -36.05581853 1201.29902783 -30.9375 1187.375 C-26.82802519 1173.87243992 -28.0068082 1161.78252364 -33.875 1149 C-40.94148613 1135.83932067 -51.7507501 1127.5458561 -65.83203125 1122.8984375 C-85.38255115 1117.15014247 -104.75351709 1124.56247159 -118.25 1139.1875 Z " fill="#dbd8d3" transform="translate(485.25,33.8125)"/>
<path d="" fill="#F9F9F9" transform="translate(0,0)"/>
<path d="" fill="#FFFEFB" transform="translate(0,0)"/>
<path d="" fill="#FAFEFB" transform="translate(0,0)"/>
<path d="" fill="#FFFDF9" transform="translate(0,0)"/>
<path d="" fill="#FFFBFF" transform="translate(0,0)"/>
<path d="" fill="#FDFFFB" transform="translate(0,0)"/>
<path d="" fill="#F9FAFB" transform="translate(0,0)"/>
<path d="" fill="#FAF9FD" transform="translate(0,0)"/>
<path d="" fill="#F9FAFB" transform="translate(0,0)"/>
<path d="" fill="#FFFEFB" transform="translate(0,0)"/>
<path d="" fill="#FDFBFF" transform="translate(0,0)"/>
<path d="" fill="#FEFDFA" transform="translate(0,0)"/>
<path d="" fill="#FEFFFB" transform="translate(0,0)"/>
<path d="" fill="#FAFFFE" transform="translate(0,0)"/>
<path d="" fill="#FFFBFC" transform="translate(0,0)"/>
<path d="" fill="#FEFBFF" transform="translate(0,0)"/>
<path d="" fill="#FBFAFE" transform="translate(0,0)"/>
<path d="" fill="#FFFFFB" transform="translate(0,0)"/>
<path d="" fill="#FCFFFB" transform="translate(0,0)"/>
<path d="" fill="#F9FAFA" transform="translate(0,0)"/>
<path d="" fill="#FEFFFB" transform="translate(0,0)"/>
<path d="" fill="#FEFFFB" transform="translate(0,0)"/>
<path d="" fill="#FDFCF9" transform="translate(0,0)"/>
<path d="" fill="#FDFFFB" transform="translate(0,0)"/>
<path d="" fill="#FEFFFB" transform="translate(0,0)"/>
<path d="" fill="#F9FAF9" transform="translate(0,0)"/>
<path d="" fill="#FFFEFB" transform="translate(0,0)"/>
<path d="" fill="#FCFEFA" transform="translate(0,0)"/>
<path d="" fill="#FBF9FB" transform="translate(0,0)"/>
<path d="" fill="#FDFEFA" transform="translate(0,0)"/>
<path d="" fill="#FCFFFB" transform="translate(0,0)"/>
<path d="" fill="#FAFBFE" transform="translate(0,0)"/>
<path d="" fill="#FFFBFE" transform="translate(0,0)"/>
<path d="" fill="#F9FAFB" transform="translate(0,0)"/>
<path d="" fill="#FBF8FA" transform="translate(0,0)"/>
<path d="" fill="#FBF9FA" transform="translate(0,0)"/>
<path d="" fill="#FBF9FA" transform="translate(0,0)"/>
<path d="" fill="#F9FAFA" transform="translate(0,0)"/>
<path d="" fill="#F9FAFB" transform="translate(0,0)"/>
<path d="" fill="#FAFEFC" transform="translate(0,0)"/>
<path d="" fill="#FAF9FA" transform="translate(0,0)"/>
<path d="" fill="#FAF9FB" transform="translate(0,0)"/>
<path d="" fill="#FEFFFB" transform="translate(0,0)"/>
<path d="" fill="#FEFDFA" transform="translate(0,0)"/>
<path d="" fill="#FFFFFB" transform="translate(0,0)"/>
<path d="" fill="#FCF9FB" transform="translate(0,0)"/>
<path d="" fill="#FCF8F9" transform="translate(0,0)"/>
<path d="" fill="#FBFEFA" transform="translate(0,0)"/>
<path d="" fill="#FAFEFC" transform="translate(0,0)"/>
<path d="" fill="#FFFEFB" transform="translate(0,0)"/>
<path d="" fill="#FBF9FB" transform="translate(0,0)"/>
<path d="" fill="#FAF9FB" transform="translate(0,0)"/>
<path d="" fill="#FAF9FB" transform="translate(0,0)"/>
<path d="" fill="#FFFEFB" transform="translate(0,0)"/>
<path d="" fill="#FBF9FA" transform="translate(0,0)"/>
<path d="" fill="#F9F9FB" transform="translate(0,0)"/>
<path d="" fill="#F9F8FA" transform="translate(0,0)"/>
<path d="" fill="#FBF9FA" transform="translate(0,0)"/>
<path d="" fill="#FCF9FD" transform="translate(0,0)"/>
<path d="" fill="#FAF9FB" transform="translate(0,0)"/>
<path d="" fill="#FFFBFF" transform="translate(0,0)"/>
<path d="" fill="#FBFFFD" transform="translate(0,0)"/>
<path d="" fill="#FBFFFD" transform="translate(0,0)"/>
<path d="" fill="#FFFBFC" transform="translate(0,0)"/>
<path d="" fill="#FEFDFA" transform="translate(0,0)"/>
<path d="" fill="#FFFBFF" transform="translate(0,0)"/>
<path d="" fill="#FCFDF9" transform="translate(0,0)"/>
<path d="" fill="#FBF9FB" transform="translate(0,0)"/>
<path d="" fill="#FEFFFB" transform="translate(0,0)"/>
<path d="" fill="#FFFBFE" transform="translate(0,0)"/>
<path d="" fill="#FEFFFB" transform="translate(0,0)"/>
<path d="" fill="#FAF9FA" transform="translate(0,0)"/>
</svg>
